<svg xmlns="http://www.w3.org/2000/svg" id="Layer_1" viewBox="0 0 1000 525"><defs id="defs1"><style id="style1">.cls-1{fill:#7c297d}.cls-3{fill:#dd552c}.cls-4{fill:#d22128}</style></defs><g id="g11" style="fill:#fff"><g id="g3" style="fill:#fff"><path id="path1" d="M458.804 181.745h49.045l87.413 220.094h-53.455l-14.777-38.044h-87.406l-15.094 38.044H371.39zm55.65 142.746L483.33 244l-30.814 80.491z" class="cls-1" style="fill:#fff"/><path id="path2" d="M622.717 331.722h48.735c.317 21.066 16.037 33.332 40.246 33.332 20.75 0 33.958-8.49 33.958-23.267 0-15.41-14.151-24.526-45.275-31.447-51.57-10.69-76.096-32.066-76.096-68.226 0-39.93 31.757-64.771 82.384-64.771 52.19 0 85.521 28.296 85.521 72.628h-48.11c0-19.806-13.834-31.756-36.785-31.756-21.065 0-33.958 8.806-33.958 23.267 0 13.525 11.634 22.014 45.275 29.871 54.714 12.892 77.665 33.642 77.665 68.542 0 41.505-32.073 66.347-84.262 66.347-55.34 0-89.298-28.929-89.298-74.52" class="cls-1" style="fill:#fff"/><path id="path3" d="M852.91 181.745h137.716v45.276h-87.722v55.023h79.859v44.023h-79.86v75.772H852.91z" class="cls-1" style="fill:#fff"/></g><g id="g10" style="fill:#fff"><path id="path4" d="M141.108 209.888c13.187-32.608 27.9-65.152 43.688-93.997-23.567-17.504-46.196-55.249-55.493-71.972-3.34 3.794-5.508 8.163-6.49 11.718-8.76 31.625 22.42 69.814-2.693 55.861C99.195 99.871 52.08 74.41 34.107 99.717c20.128 25.862 72.773 90.93 107 110.171" class="cls-3" style="fill:#fff"/><path id="path5" d="M184.796 115.891c15.297-27.95 31.6-52.428 48.501-70.063 0 0-16.858 24.4-40.936 73.18 14.582 4.016 56.113 12.256 113.96-2.686 1.422-10.513-5.645-22.075-40.863-25.947-22.993-2.524 27.597-54.902-9.052-79.674a46 46 0 0 0-3.486-2.14 45 45 0 0 0-3.911-1.205c-42.803-11.17-48.736 61.409-65.816 45.806-27.6-25.212-45.022-19.321-53.89-9.243 9.297 16.723 31.926 54.468 55.493 71.972" style="fill:#fff"/><path id="path6" d="M106.682 303.838c9.662-28.946 21.286-61.466 34.426-93.95-34.228-19.241-86.873-84.31-107-110.171-3.594 5.056-6.05 12.108-6.868 21.752-4.39 51.802 49.052 90.153 38.398 97.158-14.092 9.267-42.141-22.26-53.196-2.229 16.023 20.584 48.662 57.777 94.24 87.44" class="cls-4" style="fill:#fff"/><path id="path7" d="M254.756 192.118c-27.059-9.65 28.276-35.533 46.245-62.991 2.3-3.511 4.676-8.049 5.32-12.805-57.847 14.942-99.378 6.702-113.96 2.686-12.465 25.257-26.859 57.084-41.87 95.458 15.634 6.685 79.47 31.38 169.637 31.507 15.16-39.485-39.691-44.699-65.372-53.855" class="cls-3" style="fill:#fff"/><path id="path8" d="M117.137 309.049c15.9 4.955 68.584 19.756 124.537 17.528 7.517-20.352-20.586-22.338-22.875-38.661-1.772-12.63 73.957 10.614 98.323-35.311a60 60 0 0 0 3.006-6.632c-90.167-.127-154.003-24.822-169.637-31.507-10.97 28.044-22.256 59.517-33.354 94.583" class="cls-4" style="fill:#fff"/><path id="path9" d="M117.137 309.049c-7.145 22.57-14.193 46.682-21.035 72.164a1772 1772 0 0 0-7.19 27.643c53.106 17.531 102.008.04 103.666-21.638.014-.172-.018-.3-.008-.464 1.264-22.961-33.15-10.234-32.336-24.038.818-13.906 60.081-.081 78.409-29.895a34 34 0 0 0 3.03-6.244c-55.952 2.228-108.636-12.573-124.536-17.528" class="cls-1" style="fill:#fff"/><path id="path10" d="M12.442 216.398c-.774 1.404-1.472 3.026-2.068 4.965-10.292 33.45 62.485 78.385 52.583 88.18-8.925 8.827-20.557-11.343-34.9-3.012a22 22 0 0 0-4.806 3.75c-16.221 16.619-.254 64.496 45.77 90.052-10.74 36.062-21.432 76.351-31.9 118.486 3.798-1.33 8.342-2.663 9.473-6.245 1.698-6.981 12.194-49.462 29.235-107.094 0 0 3.11-11.806 8.804-31.255a1996 1996 0 0 1 22.049-70.387c-45.578-29.663-78.217-66.856-94.24-87.44" class="cls-1" style="fill:#fff"/></g></g><g id="g13" style="fill:#fff"><path id="polygon11" d="M404.167 144.735h9.264v-62.2h23.348v-9.062h-55.96v9.062h23.348z" class="cls-1" style="fill:#fff"/><path id="polygon12" d="M464.853 112.958h36.469v31.777h9.358V73.473h-9.358v30.417h-36.47V73.473h-9.256v71.262h9.257z" class="cls-1" style="fill:#fff"/><path id="polygon13" d="M581.403 135.963h-35.17v-23.106h31.588v-8.772h-31.588V82.151h34.106v-8.678h-43.363v71.262h44.427z" class="cls-1" style="fill:#fff"/></g></svg>