<svg xmlns="http://www.w3.org/2000/svg" xmlns:xlink="http://www.w3.org/1999/xlink" width="48" height="48"><defs><radialGradient xlink:href="#a" id="d" cx="22.001" cy="52.15" r="19.532" fx="22.001" fy="52.15" gradientTransform="matrix(1.35925 .02491 -.02607 1.4904 -6.608 -40.631)" gradientUnits="userSpaceOnUse"/><radialGradient xlink:href="#b" id="c" cx="22.001" cy="52.15" r="19.532" fx="22.001" fy="52.15" gradientTransform="matrix(1.35925 .02491 -.02607 1.4904 -6.608 -40.631)" gradientUnits="userSpaceOnUse"/><linearGradient id="a"><stop offset="0" style="stop-color:#000;stop-opacity:.36078432"/><stop offset="1" style="stop-color:#000;stop-opacity:0"/></linearGradient><linearGradient id="b"><stop offset="0" style="stop-color:#000;stop-opacity:.36078432"/><stop offset="1" style="stop-color:#000;stop-opacity:0"/></linearGradient></defs><g style="display:inline"><path d="M36.438 44.469a13.938 3.469 0 1 1-27.876 0 13.938 3.469 0 1 1 27.876 0" style="opacity:.1;fill:#000;fill-opacity:1;stroke:none" transform="matrix(1.43271 0 0 2.61264 -8.236 -77.244)"/></g><g style="display:inline"><path d="M316.937 619.433c0 1.642.072 3.773-.596 4.76-1.68 14.002-10.726 20.545-22.504 20.545-12.358 0-22.27-5.294-23.312-20.752-.954-.91-.738-3.678-.738-4.553 0-4.67 10.176-10.363 23.196-10.363s23.954 5.07 23.954 10.363" style="fill:#fff;fill-opacity:1;stroke:none" transform="translate(-269.353 -601.97)"/><path d="M313.78 632.605c1.311-2.775 1.145-3.083 1.685-5.415-1 2.431-9.879 8.062-22.215 8.062s-20.937-5.63-21.937-8.062c.302 2.264.306 2.435 1.503 5.415 1.195 2.977 9.291 7.553 20.45 7.553s19.037-4.431 20.513-7.553" style="opacity:.26000001;fill:#367ece;fill-opacity:.99215686;stroke:none" transform="translate(-269.353 -601.97)"/><path d="M316.937 619.433c0 1.642.072 3.773-.596 4.76-1.68 14.002-10.726 20.545-22.504 20.545-12.358 0-22.27-5.294-23.312-20.752-.954-.91-.738-3.678-.738-4.553 0-4.67 10.176-10.363 23.196-10.363s23.954 5.07 23.954 10.363z" style="fill:none;stroke:#000;stroke-width:.85016626;stroke-miterlimit:4;stroke-opacity:1" transform="translate(-269.353 -601.97)"/><path d="M41.125 17.813a19.188 8.938 0 1 1-38.375 0 19.188 8.938 0 1 1 38.375 0z" style="fill:url(#c);fill-opacity:1;stroke:#000;stroke-width:.68828493;stroke-miterlimit:4;stroke-opacity:1;stroke-dasharray:none" transform="matrix(1.05192 0 0 1.02755 .924 -.919)"/></g><g style="display:inline"><path d="M41.125 17.813a19.188 8.938 0 1 1-38.375 0 19.188 8.938 0 1 1 38.375 0z" style="fill:url(#d);fill-opacity:1;stroke:#000;stroke-width:.68828493;stroke-miterlimit:4;stroke-opacity:1;stroke-dasharray:none" transform="matrix(1.05192 0 0 1.02755 .965 -1.054)"/><path d="M282.79 619.098c0 5.198-9.039 9.411-20.19 9.411-11.15 0-20.19-4.213-20.19-9.411 0-1.454.907-2.463 1.913-3.923.484-.701.56-1.893 1.384-2.56.767-.62 2.397-1.09 3.334-1.693 1.024-.66 1.879-1.98 3.116-2.501.955-.402 2.546-.824 3.62-.718 1.158.114 2.236-.148 3.247-.948.842-.666 2.089-.639 3.296-.791 1.599-.202 2.876.891 4.414.966 1.422.068 3.288-.049 4.595.42 1.155.415 1.822 1.343 2.834 1.904 1.155.64 3.475.769 4.05 1.859.383.727.649 1.92 1.412 2.156 1.492.461 1.42 1.207 1.788 1.805.437.708.797 1.53 1.027 2.161.25.686.35 1.177.35 1.863z" style="fill:#7cad4c;fill-opacity:1;stroke:#000;stroke-width:.70845824;stroke-miterlimit:4;stroke-opacity:1" transform="translate(-238.5 -601.937)"/><path d="M13.763 17.726c-.033.125-1.65.627-1.806.634-.155.007-.208-1.212-.18-1.372.03-.16 1.323-.702 1.42-.6.097.103.598 1.212.566 1.338m5.234-4.393c-.081.057-.637.445-.715.415s-.255-1.095-.197-1.178.675.13.735.177.258.528.177.586" style="opacity:.37021275;fill:green;fill-opacity:1;stroke:none" transform="matrix(.92426 0 0 .94393 3.56 -.497)"/><path d="M24.254 19.493c-.067.14-1.189.284-1.327.228-.14-.056-.272-1.754-.178-1.875.094-.12 1.227.25 1.327.392s.244 1.116.178 1.255" style="opacity:.37021275;fill:green;fill-opacity:1;stroke:none" transform="matrix(.92426 0 0 .94393 2.907 .004)"/><path d="M16.82 21.078c-.082.056-.706-.045-.705-.137 0-.091.28-.79.375-.822s.68.303.683.4c.003.096-.27.503-.353.559m10.68-9.594c-.167.038-1.891.076-1.997-.07s-.215-1.769-.109-1.936 1.923.227 2.042.385c.12.157.231 1.582.064 1.62m5.275 7.969c-.188.095-1.143-.07-1.33-.16s-.746-1.287-.587-1.412c.159-.124 2.427-.382 2.584-.258.157.125-.478 1.734-.667 1.83m-9.366 5.403c-.13.157-1.25.22-1.376.061-.127-.159-.58-2.178-.485-2.346s2.048.387 2.165.553-.175 1.575-.304 1.732M9.57 22.798c-.05.138-1.455.552-1.597.488-.14-.064-.442-1.393-.392-1.568s1.883-.586 2.014-.482c.132.103.025 1.424-.026 1.562M7.84 14.764c-.022.133-.712.423-.837.397-.126-.026-.843-1.102-.785-1.217.059-.114 1.218-.453 1.341-.396s.304 1.083.281 1.216m-3.35 3.33c-.033.128-1.421.245-1.54.209-.12-.036-.12-1.088-.055-1.202.064-.114.873-.191.996-.16.122.03.633 1.025.6 1.153m9.505-7.496c-.118.208-1.736.539-1.927.356-.19-.184-.34-1.716-.179-1.923.162-.206 2.23-.997 2.465-.883s-.242 2.243-.36 2.45m12.232 4.007c-.078.036-.856.094-.925.03-.068-.066-.034-.873 0-.959s.864-.086.924-.029c.06.058.078.923 0 .958m-3.585-6.152c-.101.03-1.344-.453-1.35-.549-.005-.096.7-.755.795-.76s.927.243.921.355-.264.925-.366.954m7.879 14.722c-.106.065-.876.567-1.002.508-.126-.06-.316-1.607-.207-1.692s.896-.069 1.003.01c.108.08.313 1.11.206 1.174" style="opacity:.37021275;fill:green;fill-opacity:1;stroke:none" transform="matrix(.92426 0 0 .94393 3.56 -.497)"/><path d="M38.567 20.982c-.049.076-1 .268-1.076.209s-.266-.74-.198-.796c.068-.055 1.029-.09 1.097-.042.069.049.226.553.177.629m-21.212-4.296c-.085.037-.783-.123-.861-.208-.079-.085-.06-.958.006-1.027.067-.069.816.114.862.208s.078.991-.007 1.027m4.905-3.644c-.062.047-1.016.435-1.097.382-.082-.053-.22-.93-.178-1.002s.983-.195 1.077-.176.26.749.198.796m9.92 2.011c-.118.12-1.425.07-1.495-.057s.399-1.446.482-1.567 1.099-.365 1.189-.234-.056 1.739-.175 1.858m-2.387.7c-.017.064-.801.301-.846.252s-.197-.589-.182-.662.616-.336.669-.307.376.654.359.717m-16.22 6.991c-.111.095-1.684.148-1.781.045-.098-.102-.128-.997-.001-1.065s1.72-.18 1.781-.045c.062.136.112.971.001 1.065m4.389 2.439c-.19.093-1.87.213-1.963.055-.095-.158.18-1.353.32-1.445s1.677-.6 1.73-.409c.053.193.103 1.706-.087 1.799m1.902-4.315c.028.045-.38.515-.436.51s-.395-.168-.393-.216c.001-.049.366-.416.423-.417.057 0 .378.078.406.123m-7.982-7.588c-.077.065-1.043.048-1.097-.014-.054-.063.097-.947.176-.96.08-.012 1.032.344 1.098.387s-.1.52-.177.586M7.98 17.612c-.018.168-.965.81-1.098.7s-.975-1.759-.925-1.916 1.561-.147 1.69-.057c.13.09.35 1.106.333 1.273" style="opacity:.37021275;fill:#fd5;fill-opacity:1;stroke:none" transform="matrix(.92426 0 0 .94393 3.56 -.497)"/><path d="M31.607 9.927c-.095.028-1.283.122-1.315.018s.094-1.084.176-1.15c.082-.067 1.278.28 1.316.388.037.108-.082.717-.177.744m-4.277 9.14c-.08.085-1.292.173-1.316.068-.023-.104.102-.929.201-.99s.945-.106 1.04-.032c.095.073.154.87.075.954m-3.663-2.873c.019.097-.563.674-.667.616-.103-.057-.578-1.145-.57-1.255.007-.11.573-.418.69-.414s.528.956.547 1.053m-4.397 1.203c-.034.11-.932.57-1.024.502-.093-.067-.16-1.138-.054-1.215.106-.076 1.12-.47 1.241-.399.12.073-.127 1.003-.162 1.112m-.254-7.132c-.065.142-1.114.202-1.258.145s-.32-1.043-.28-1.167c.041-.124.765-.666.9-.626.136.04.704 1.506.638 1.648m-4.981 3.809c-.079.075-.809.295-.9.248-.092-.046-.622-.752-.576-.857.046-.106 1.216-.406 1.305-.362s.25.895.171.97m-3.422 5.281c-.029.086-1.02.095-1.098.042-.078-.052-.218-.933-.177-1.001.041-.069.866-.284.925-.207.06.078.378 1.08.35 1.166m-5.739 1.128c-.08.08-1.44.312-1.542.221-.1-.09-.432-1.035-.383-1.172.048-.136 1.433-.788 1.541-.754.109.034.465 1.624.384 1.705m21.298 1.083c-.045.087-.832.31-.881.227s-.053-.904.003-.97c.055-.067.834-.29.925-.25.09.041-.003.906-.047.993m8.231-4.217c-.072.063-.76.49-.859.472s-.25-1.3-.202-1.412c.049-.111.804-.12.86-.016s.273.893.201.956m1.141 5.634c-.074.103-1.49-.133-1.53-.243s-.064-1.356 0-1.457c.063-.1 1.45.141 1.53.243s.075 1.354 0 1.457m-7.671 1.888c-.008.122-.806.497-.896.424-.09-.072-.81-.645-.82-.766-.011-.12 1.033-.654 1.1-.582s.625.802.616.924m-14.494.74c-.055.161-1.302.688-1.42.6s-.605-1.185-.565-1.338c.04-.152.968-1.036 1.13-1 .163.036.91 1.578.855 1.739" style="opacity:.37021275;fill:#9a2b2b;fill-opacity:1;stroke:none" transform="matrix(.92426 0 0 .94393 3.56 -.497)"/><path d="M29.492 20.745c-.102.025-1.286-.328-1.315-.439-.03-.11.083-.715.176-.745s1.28-.133 1.315-.018c.035.116-.074 1.177-.176 1.202m4.018 4.128c.007.08-.807.42-.884.397s-.371-.75-.357-.828.8-.392.884-.353c.083.038.35.704.357.784" style="opacity:.37021275;fill:#fd5;fill-opacity:1;stroke:none" transform="matrix(.92426 0 0 .94393 3.56 -.497)"/><path d="M20.636 25.9c-.09.054-1.186.235-1.287.197-.102-.037.208-.837.24-.937.03-.1 1.025-.377 1.093-.278.067.099.045.963-.046 1.018" style="opacity:.37021275;fill:#992b2b;fill-opacity:1;stroke:none" transform="matrix(.92426 0 0 .94393 3.887 .338)"/><path d="M277.157 606.002c.987-1.021 9.463 3.787 8.982 5.339-.738 2.38-7.237 5.71-8.451 6.386-.042-.455-.463-.92-.696-1.327-.211-.368-.863-.573-1.146-.795-.534-.418-.393-1.073-.813-1.534-.407-.446-.875-.411-1.359-.682 1.133-3.341 2.495-6.367 3.483-7.387z" style="fill:#f4f0b6;fill-opacity:1;stroke:#000;stroke-width:.53710079;stroke-opacity:1" transform="translate(-238.5 -601.937)"/><path d="M40.228 3.314c-.033.027-.312-.146-.31-.192s.086-.346.124-.372.473.152.489.192c.015.04-.27.345-.303.372" style="fill:#000;fill-opacity:1;stroke:none" transform="matrix(.92426 0 0 .94393 2.27 2.505)"/><path d="M40.118 7.884c-.02.035-.309.034-.33.006s-.213-.283-.201-.316.457-.037.481-.006c.025.03.07.281.05.316m3.274.896c-.052.026-.394.013-.405-.036-.012-.05-.047-.54.001-.551.049-.012.608.213.635.264.026.052-.178.297-.23.323m2.319 2.57c-.05.057-.713.09-.749.017-.035-.074.112-.734.148-.799s.714-.074.748-.016-.098.741-.147.798m-2.734-.007a.8.8 0 0 1-.233.092c-.03 0-.204-.15-.19-.177.016-.026.205-.218.234-.21.03.007.208.273.19.295m-.669 2.561c-.037.02-.304.04-.346.015-.04-.025-.082-.466-.064-.5s.51-.053.533-.014c.023.04-.086.48-.123.5m-2.67.958a1 1 0 0 1-.263.06c-.022-.01-.021-.193-.006-.206s.242-.068.264-.06.02.192.006.206m-1.703-1.316c-.033.031-.435.042-.47.016-.033-.025-.023-.494-.001-.53s.434.155.468.184.035.3.003.33m2.182-1.843c-.044.055-.522-.055-.557-.116s-.077-.523-.015-.555c.061-.032.505.069.558.116.052.047.06.5.015.555m1.315-1.792c-.038.028-.565-.219-.56-.267.006-.05.178-.384.225-.38.047.003.336.231.364.267.029.035.01.351-.029.38m-2.874-1.134c-.01.052-.467.169-.518.147s-.144-.33-.117-.362.26-.172.308-.147c.049.025.336.31.327.362m-.539 1.583c-.028.018-.29.107-.309.08-.018-.025-.114-.273-.091-.302s.287-.099.308-.08c.021.018.12.284.092.302m-2.127 1.479c-.005.024-.248-.019-.264-.033s-.024-.186-.005-.198.246-.07.264-.06c.017.008.01.267.005.29" style="fill:#000;fill-opacity:1;stroke:none" transform="matrix(.92426 0 0 .94393 3.685 -.533)"/></g></svg>