<svg xmlns="http://www.w3.org/2000/svg" width="64" height="64" viewBox="0 0 16.933 16.933"><path d="M3.842 3.993c-.6 0-1.082.482-1.082 1.082.004 2.714-.005 5.428-.013 8.142l2.02-1.83h8.454c.6 0 1.082-.482 1.082-1.082v-5.23c0-.6-.482-1.082-1.082-1.082z" style="opacity:.25;fill:#fff;fill-opacity:1;stroke:#007544;stroke-width:.901815;stroke-linecap:round;stroke-linejoin:round;stroke-dasharray:none;stroke-opacity:1" transform="matrix(1.33802 0 0 1.33802 -2.94 -3.047)"/><path d="M8.115 8.051q0-.22.082-.4.044-.097.118-.194.074-.1.192-.216l.237-.234.066-.069q.04-.04.068-.076.06-.074.084-.116.027-.042.045-.11.013-.035.013-.116l-.002-.053q0-.031-.006-.052l-.01-.04q-.008-.032-.019-.053-.018-.042-.05-.079-.029-.036-.07-.073-.066-.053-.12-.074l-.057-.021q-.042-.016-.087-.024-.079-.015-.168-.015-.074 0-.137.007-.06.008-.142.03-.037.01-.082.026-.042.013-.068.023-.103.04-.23.108-.126.069-.252.158l-.063.045V5.84l.018-.013q.253-.153.511-.23.247-.073.532-.073.26 0 .455.066.203.068.355.197.15.13.227.308.076.184.076.392 0 .216-.095.398-.045.084-.124.184-.076.1-.218.24l-.229.226q-.058.055-.087.086l-.058.066q-.026.032-.047.066l-.032.053q-.047.09-.047.202v.374h-.58Zm.297 1.666q-.176 0-.3-.123-.123-.124-.123-.316 0-.198.123-.321.063-.06.142-.09.08-.029.158-.029.042 0 .087.008l.032.008q.023.005.045.016.05.021.07.034.024.013.066.058.027.026.05.06.024.035.042.08.032.079.032.173 0 .195-.124.319-.123.123-.3.123" aria-label="?" style="font-weight:700;font-size:5.38987px;font-family:Hack;-inkscape-font-specification:&quot;Hack Bold&quot;;stroke:#000;stroke-width:.224578;stroke-linecap:round;stroke-linejoin:round" transform="matrix(1.33797 .0119 -.0119 1.33797 -2.94 -3.047)"/></svg>