<svg xmlns="http://www.w3.org/2000/svg" width="64" height="64" viewBox="0 0 16.933 16.933"><g style="opacity:.25"><path d="m9.46 65.694 1.475 2.646-1.902-.354Z" style="opacity:1;fill:#007544;stroke-width:.132292;stroke-linecap:round;stroke-linejoin:round" transform="matrix(1.08344 0 0 1.08344 .343 -69.602)"/><path d="m.675 67.523 6.718-2.786 2.984 1.636 3.943 9.51-8.685 3.601z" style="fill:#fff;stroke:#007544;stroke-width:.529167;stroke-linecap:round;stroke-linejoin:round;stroke-dasharray:none" transform="matrix(1.08344 0 0 1.08344 .343 -69.602)"/><path d="m7.023 65.43 2.699 1.376-1.777.765z" style="fill:#007544;stroke-width:.132292;stroke-linecap:round;stroke-linejoin:round" transform="matrix(1.08344 0 0 1.08344 .343 -69.602)"/><path d="M2.978 64.893h7.272l2.13 2.654v10.295H2.978Z" style="opacity:1;fill:#fff;stroke:#007544;stroke-width:1.05833;stroke-linecap:round;stroke-linejoin:round" transform="matrix(1.08344 0 0 1.08344 .343 -69.602)"/><path d="M4.396 75.38h5.698" style="opacity:1;fill:none;fill-opacity:1;stroke:#007544;stroke-width:.529168;stroke-linecap:round;stroke-linejoin:round;stroke-dasharray:none;stroke-opacity:1" transform="matrix(1.08344 0 0 1.08344 .343 -69.602)"/><path d="M4.498 67.314h.89M6.524 67.305H8.93" style="opacity:1;fill:none;fill-opacity:1;stroke:#007544;stroke-width:.529169;stroke-linecap:round;stroke-linejoin:round;stroke-dasharray:none;stroke-opacity:1" transform="matrix(1.08344 0 0 1.08344 .343 -69.602)"/><path d="M4.379 76.427h1.523M7.265 76.434h2.677" style="opacity:1;fill:none;fill-opacity:1;stroke:#007544;stroke-width:.529168;stroke-linecap:round;stroke-linejoin:round;stroke-dasharray:none;stroke-opacity:1" transform="matrix(1.08344 0 0 1.08344 .343 -69.602)"/><path d="M4.485 66.216h3.208" style="opacity:1;fill:none;fill-opacity:1;stroke:#007544;stroke-width:.529167;stroke-linecap:round;stroke-linejoin:round;stroke-dasharray:none;stroke-opacity:1" transform="matrix(1.08344 0 0 1.08344 .343 -69.602)"/><path d="M4.504 68.333h3.849" style="opacity:1;fill:none;fill-opacity:1;stroke:#007544;stroke-width:.529168;stroke-linecap:round;stroke-linejoin:round;stroke-dasharray:none;stroke-opacity:1" transform="matrix(1.08344 0 0 1.08344 .343 -69.602)"/><path d="m9.971 65.385 1.935 2.332H9.971Z" style="opacity:1;fill:#007544;stroke-width:.132292;stroke-linecap:round;stroke-linejoin:round" transform="matrix(1.08344 0 0 1.08344 .343 -69.602)"/><path d="M6.844 69.046c-2.446.177-2.946 5.348 1.032 5.011s2.265-5.84-1.104-4.256" style="fill:none;fill-opacity:1;stroke:#007544;stroke-width:.349282;stroke-linecap:round;stroke-linejoin:round;stroke-dasharray:none;stroke-opacity:1" transform="matrix(1.08344 0 0 1.08344 .343 -69.602)"/><path d="M10.12 68.96c.358.298.326.828.626 1.167-.096-.196-.235-.592-.35-.86-.063-.121-.13-.267-.275-.307" style="fill:none;fill-opacity:1;stroke:#007544;stroke-width:.395323;stroke-linecap:round;stroke-linejoin:round;stroke-dasharray:none;stroke-opacity:1" transform="matrix(1.08344 0 0 1.08344 .343 -69.602)"/><path d="M11.072 70.72c-.283-.014-.002.443.058.117a.13.13 0 0 0-.058-.117" style="fill:none;fill-opacity:1;stroke:#007544;stroke-width:.2643;stroke-linecap:round;stroke-linejoin:round;stroke-dasharray:none;stroke-opacity:1" transform="matrix(1.08344 0 0 1.08344 .343 -69.602)"/></g><g transform="matrix(.65434 0 0 .65434 3.35 -78.82)"><path d="M10.185 132.104a2.432 2.783 0 0 1-1.216 2.41 2.432 2.783 0 0 1-2.432 0 2.432 2.783 0 0 1-1.216-2.41h2.432z" style="opacity:1;fill:#000;fill-opacity:1;stroke:#000;stroke-width:.529167;stroke-linecap:round;stroke-linejoin:round;stroke-dasharray:none;stroke-opacity:1"/><path d="M10.052-132.54a2.27 1.52 0 0 1-1.135 1.316 2.27 1.52 0 0 1-2.27 0 2.27 1.52 0 0 1-1.136-1.317h2.27z" style="fill:#000;fill-opacity:1;stroke:none;stroke-width:.132292;stroke-linecap:round;stroke-linejoin:round;stroke-dasharray:none;stroke-opacity:1" transform="scale(1 -1)"/><ellipse cx="6.092" cy="132.374" rx=".803" ry=".926" style="opacity:1;fill:#000;fill-opacity:1;stroke:none;stroke-width:.132292;stroke-linecap:round;stroke-linejoin:round;stroke-dasharray:none;stroke-opacity:1"/><ellipse cx="6.666" cy="132.011" rx=".803" ry=".926" style="fill:#000;fill-opacity:1;stroke:none;stroke-width:.132292;stroke-linecap:round;stroke-linejoin:round;stroke-dasharray:none;stroke-opacity:1"/><ellipse cx="7.368" cy="131.829" rx=".803" ry=".926" style="fill:#000;fill-opacity:1;stroke:none;stroke-width:.132292;stroke-linecap:round;stroke-linejoin:round;stroke-dasharray:none;stroke-opacity:1"/><ellipse cx="8.085" cy="131.845" rx=".803" ry=".926" style="fill:#000;fill-opacity:1;stroke:none;stroke-width:.132292;stroke-linecap:round;stroke-linejoin:round;stroke-dasharray:none;stroke-opacity:1"/><ellipse cx="8.931" cy="132.044" rx=".803" ry=".926" style="fill:#000;fill-opacity:1;stroke:none;stroke-width:.132292;stroke-linecap:round;stroke-linejoin:round;stroke-dasharray:none;stroke-opacity:1"/><ellipse cx="9.519" cy="132.391" rx=".803" ry=".926" style="fill:#000;fill-opacity:1;stroke:none;stroke-width:.132292;stroke-linecap:round;stroke-linejoin:round;stroke-dasharray:none;stroke-opacity:1"/><path d="m9.267 131.902.044-1.18.766.484z" style="opacity:1;stroke:#000;stroke-width:.529167;stroke-linecap:round;stroke-linejoin:round;stroke-dasharray:none;stroke-opacity:1"/></g></svg>