<svg xmlns="http://www.w3.org/2000/svg" width="64" height="64" viewBox="0 0 16.933 16.933"><g style="opacity:.25" transform="matrix(1.2569 0 0 1.2569 -2.128 -2.55)"><ellipse cx="8.429" cy="8.765" rx="3.329" ry="6.031" style="opacity:1;fill:none;fill-opacity:1;stroke:#007544;stroke-width:.988809;stroke-dasharray:none;stroke-opacity:1"/><circle cx="8.429" cy="8.765" r="6.031" style="opacity:1;fill:none;fill-opacity:1;stroke:#007544;stroke-width:.988809;stroke-dasharray:none;stroke-opacity:1"/><g style="opacity:1"><path d="M3.52 11.325h9.723" style="opacity:1;fill:#fff;fill-opacity:1;stroke:#007544;stroke-width:1.05833;stroke-linecap:square;stroke-linejoin:round;stroke-dasharray:none;stroke-opacity:1" transform="translate(0 .1)"/><path d="M3.49 6.004h9.783" style="opacity:1;fill:#fff;fill-opacity:1;stroke:#007544;stroke-width:1.06156;stroke-linecap:square;stroke-linejoin:round;stroke-dasharray:none;stroke-opacity:1" transform="translate(0 .1)"/></g></g><g transform="matrix(.50405 0 0 .50405 3.796 -2.624)"><path d="M8.24 9.79c0 1.13-.704 1.865-2.057 3.266-1.272-1.374-2.059-2.135-2.059-3.266 0-1.13.922-2.047 2.059-2.047 1.136 0 2.058.916 2.058 2.047" style="fill:#000;stroke:none;stroke-width:.529167;stroke-dasharray:none"/><ellipse cx="6.183" cy="9.723" rx=".967" ry=".962" style="fill:#fff;stroke:none;stroke-width:.529168;stroke-linecap:round;stroke-linejoin:round;stroke-dasharray:none"/></g><g transform="translate(5.254 -3.974)scale(1.02292)"><path d="M8.24 9.79c0 1.13-.704 1.865-2.057 3.266-1.272-1.374-2.059-2.135-2.059-3.266 0-1.13.922-2.047 2.059-2.047 1.136 0 2.058.916 2.058 2.047" style="fill:#000;stroke:none;stroke-width:.529167;stroke-dasharray:none"/><ellipse cx="6.183" cy="9.723" rx=".967" ry=".962" style="fill:#fff;stroke:none;stroke-width:.529168;stroke-linecap:round;stroke-linejoin:round;stroke-dasharray:none"/></g><g transform="matrix(1.2569 0 0 1.2569 -2.128 -2.55)"><path d="M8.24 9.79c0 1.13-.704 1.865-2.057 3.266-1.272-1.374-2.059-2.135-2.059-3.266 0-1.13.922-2.047 2.059-2.047 1.136 0 2.058.916 2.058 2.047" style="fill:#000;stroke:none;stroke-width:.529167;stroke-dasharray:none"/><ellipse cx="6.183" cy="9.723" rx=".967" ry=".962" style="fill:#fff;stroke:none;stroke-width:.529168;stroke-linecap:round;stroke-linejoin:round;stroke-dasharray:none"/></g></svg>