<svg xmlns="http://www.w3.org/2000/svg" width="64" height="64" viewBox="0 0 16.933 16.933"><path d="M8.33 18.83q-1.016-.012-1.601-.443-.586-.43-.586-1.314v-1.624q0-.563-.353-.795-.342-.244-.994-.244v-.806q.652-.011.994-.243.353-.232.353-.784v-1.635q0-.884.608-1.315t1.58-.43v.795q-.575.01-.906.254-.32.243-.32.784v1.59q0 1.139-1.205 1.349v.066q1.205.21 1.205 1.348v1.624q0 .54.32.773.32.243.906.254zm9.722-9.634q1.017.011 1.602.442t.586 1.315v1.624q0 .563.342.806.354.232 1.005.232v.807q-.651.01-1.005.243-.342.232-.342.784v1.635q0 .873-.608 1.303-.608.442-1.58.442v-.795q.575-.022.895-.265.331-.232.331-.774v-1.59q0-1.138 1.205-1.348v-.066q-1.205-.21-1.205-1.348v-1.624q0-.541-.32-.773-.32-.243-.906-.254z" aria-label="{ }" style="font-size:11.0471px;font-family:&quot;Noto Sans Mono&quot;;-inkscape-font-specification:&quot;Noto Sans Mono&quot;;opacity:1;fill:#c6e0d5;stroke-width:1.96265;fill-opacity:1" transform="matrix(.99268 0 0 1.00659 -4.628 -5.638)"/><path d="M11.226 10.523q1.038 0 1.631 1.202.215.475.225.726h.016q.179-.829.649-1.376.552-.552 1.243-.552 1.068 0 1.712 1.145.164.425.164.798 0 1.279-1.063 2.44l-2.705 3.246h-.031l-2.874-3.523q-.859-1.048-.859-2.163 0-1.079 1.018-1.713.43-.23.874-.23" style="font-style:normal;font-weight:400;font-size:40px;line-height:125%;font-family:Sans;letter-spacing:0;word-spacing:0;fill:#000;fill-opacity:1;stroke:none;stroke-width:1.93678px;stroke-linecap:butt;stroke-linejoin:miter;stroke-opacity:1" transform="translate(-4.628 -5.638)scale(.99961)"/></svg>