<svg xmlns="http://www.w3.org/2000/svg" width="52" height="64"><g style="fill:#fff;stroke-width:.162064"><path d="M42.72 148.885c.67 2.085-1.245 2.798-3.323 3.775-2.017.948-4.767 1.551-7.801 1.586-3.034-.035-6.122-.708-7.801-1.586-1.497-.783-3.507-1.605-3.236-3.804.218-1.76 5.253-3.747 10.935-3.793 5.155-.042 10.543 1.698 11.226 3.822m-23.987.013c.06.924-.038 2.134.335 2.69.09.751.221 1.46.383 2.135 1.287 1.475 6.057 3.97 12.07 4.093v.004l.075-.002.075.002v-.004c6.013-.123 10.783-2.618 12.07-4.093.161-.676.293-1.384.382-2.135.373-.556.313-1.764.336-2.69.069-2.85-7.393-5.026-12.985-5.143s-12.904 2.598-12.741 5.143m2.004 8.268c2.162 4.03 6.075 5.97 10.784 6.006v.003h.017q.029 0 .058-.002l.058.002h.017v-.003c4.709-.036 8.621-1.977 10.784-6.006-1.636 1.582-5.74 3.331-10.86 3.414-5.119-.083-9.222-1.832-10.858-3.414" style="fill:#fff;fill-opacity:1;stroke:none;stroke-width:.471923" transform="translate(-34.636 -250.163)scale(1.91918)"/><g style="fill:#fff;stroke-width:.162064"><path d="M39.108-138.364h-15.25l7.625-13.207z" style="color:#000;clip-rule:nonzero;display:inline;overflow:visible;visibility:visible;opacity:1;isolation:auto;mix-blend-mode:normal;color-interpolation:sRGB;color-interpolation-filters:linearRGB;solid-color:#000;solid-opacity:1;fill:#fff;fill-opacity:1;fill-rule:nonzero;stroke:none;stroke-width:.0199574;stroke-linecap:butt;stroke-linejoin:round;stroke-miterlimit:4;stroke-dasharray:none;stroke-dashoffset:0;stroke-opacity:1;color-rendering:auto;image-rendering:optimizeQuality;shape-rendering:auto;text-rendering:auto" transform="matrix(1.4354 0 0 -.79816 -19.246 -96.459)"/><path d="M28.764 129.256h5.438V142.2h-5.438z" style="color:#000;clip-rule:nonzero;display:inline;overflow:visible;visibility:visible;opacity:1;isolation:auto;mix-blend-mode:normal;color-interpolation:sRGB;color-interpolation-filters:linearRGB;solid-color:#000;solid-opacity:1;fill:#fff;fill-opacity:1;fill-rule:nonzero;stroke:none;stroke-width:.0153277;stroke-linecap:butt;stroke-linejoin:round;stroke-miterlimit:4;stroke-dasharray:none;stroke-dashoffset:0;stroke-opacity:1;color-rendering:auto;image-rendering:optimizeQuality;shape-rendering:auto;text-rendering:auto" transform="matrix(1.4354 0 0 1.32 -19.246 -169.617)"/></g></g></svg>